PathFileType  4	(X/Y/Z) C:\Users\antoi\Documents\MyRepositories\mobilecap\ResultsAnalysis
DataRate	CameraRate	NumFrames	NumMarkers	Units	OrigDataRate	OrigDataStartFrame	OrigNumFrames
100.0	100.0	7	51	mm	100.0	671	1341
Frame#	Time	r_knee			r_shank_antsup			r_ankle			r_calc			r_5meta			r_toe			L_knee			L_shank_antsup			L_ankle			L_calc			L_5meta			L_toe			r_sh2			r_sh3			r_sh4			L_sh2			L_sh3			r_thigh1			r_thigh2			r_thigh3			r_thigh4			r_thigh5			L_thigh1			L_thigh2			L_thigh3			L_thigh4			r.ASIS			r.PSIS			L.ASIS			L.PSIS			C7			R_Shoulder			L_Shoulder			R_Sternum			L_Sternum			R_humerus			R_elbow_med			R_elbow_lat			R_forearm			R_wrist_radius			R_wrist_ulna			L_humerus			L_elbow_med			L_elbow_lat			L_forearm			L_wrist_radius			L_wrist_ulna			R_HJC			L_HJC			R_HJC_reg			L_HJC_reg			
		X1	Y1	Z1	X2	Y2	Z2	X3	Y3	Z3	X4	Y4	Z4	X5	Y5	Z5	X6	Y6	Z6	X7	Y7	Z7	X8	Y8	Z8	X9	Y9	Z9	X10	Y10	Z10	X11	Y11	Z11	X12	Y12	Z12	X13	Y13	Z13	X14	Y14	Z14	X15	Y15	Z15	X16	Y16	Z16	X17	Y17	Z17	X18	Y18	Z18	X19	Y19	Z19	X20	Y20	Z20	X21	Y21	Z21	X22	Y22	Z22	X23	Y23	Z23	X24	Y24	Z24	X25	Y25	Z25	X26	Y26	Z26	X27	Y27	Z27	X28	Y28	Z28	X29	Y29	Z29	X30	Y30	Z30	X31	Y31	Z31	X32	Y32	Z32	X33	Y33	Z33	X34	Y34	Z34	X35	Y35	Z35	X36	Y36	Z36	X37	Y37	Z37	X38	Y38	Z38	X39	Y39	Z39	X40	Y40	Z40	X41	Y41	Z41	X42	Y42	Z42	X43	Y43	Z43	X44	Y44	Z44	X45	Y45	Z45	X46	Y46	Z46	X47	Y47	Z47	X48	Y48	Z48	X49	Y49	Z49	X50	Y50	Z50	X51	Y51	Z51	

671	6.70000000	-60.83696	427.82015	-314.06348	-15.63285	372.13295	-322.04597	-251.22650	95.31368	-357.83021	-316.36276	58.88452	-408.02932	-140.99476	39.70720	-311.26725	-96.72526	58.38078	-364.55592	-96.53917	453.51241	-753.36864	-76.93719	376.82870	-788.90757	-247.15090	103.17883	-790.27669	-309.65043	58.52846	-747.75464	-135.11960	41.62687	-834.07119	-89.80135	59.48015	-781.16158	-69.48384	270.44928	-347.69298	-80.54879	395.28318	-289.43328	-131.37366	290.02217	-292.77065	-153.47998	420.17303	-774.15884	-206.75859	307.66435	-788.53384	-267.08703	633.08293	-376.34985	-162.96170	594.71130	-361.45615	-156.15442	567.60951	-299.12588	-295.71257	590.87021	-276.73171	-195.97897	536.60896	-272.82102	-334.95750	628.12147	-661.74921	-225.79548	558.63242	-726.68765	-398.66418	536.87601	-676.14671	-282.71465	462.51555	-698.34141	-293.69403	668.70312	-357.11501	-457.12031	749.10499	-435.39683	-298.90819	628.04193	-579.11648	-454.96293	742.62445	-528.19346	-88.38260	1044.68611	-495.43830	-18.53925	973.07955	-340.20985	-27.18650	972.43844	-634.03039	-23.97546	908.34125	-468.77064	-30.38973	902.80901	-503.57003	8.21516	794.59110	-209.73033	-17.40672	671.54771	-206.23244	19.03876	713.29966	-160.39352	120.24612	774.97174	-234.81290	162.64163	830.43215	-306.16303	193.81587	799.34914	-293.55780	-29.61301	796.37067	-770.56941	-46.43923	664.49931	-757.95317	-25.49086	697.70671	-819.84515	86.80227	763.88601	-755.39540	140.88041	825.19749	-689.69488	168.24711	790.14062	-693.95954	-388.76673	611.44151	-375.58072	-401.36977	595.02868	-565.12581	-383.15068	609.55567	-385.40370	-379.69616	599.17823	-533.99983	
672	6.71000000	-60.13116	427.51438	-314.09480	-15.04922	371.75175	-322.07319	-251.15736	95.39979	-357.80053	-316.34753	58.91019	-408.03188	-140.97880	39.71062	-311.27343	-96.69093	58.31580	-364.51386	-95.93917	453.19121	-753.24915	-76.33767	376.42006	-788.66055	-247.08111	103.20533	-790.20803	-309.60542	58.61014	-747.78172	-135.10678	41.63143	-834.06454	-89.78215	59.46273	-781.16152	-69.11203	270.19940	-347.65199	-80.03718	395.11669	-289.37519	-130.95167	289.81035	-292.80381	-152.86519	419.92201	-773.91175	-206.05865	307.37282	-788.28086	-266.66859	632.29325	-376.45336	-162.48378	594.13822	-361.57185	-155.69862	567.01321	-299.30097	-295.22185	590.10400	-276.72917	-195.31570	536.04965	-272.73968	-334.57816	627.37294	-661.82196	-225.32451	557.99707	-726.48234	-398.11661	536.02505	-675.99307	-282.13120	461.87560	-698.19667	-293.35333	667.85758	-357.07197	-456.83969	748.07104	-435.17908	-298.63341	627.40035	-579.05326	-454.68769	741.67656	-527.91979	-87.84161	1043.62876	-494.62858	-18.35336	972.06886	-339.55330	-26.71024	971.69553	-633.58912	-23.59380	907.46829	-468.54054	-28.92460	902.96947	-502.94102	8.00105	793.17261	-209.47513	-17.87067	670.18120	-206.10457	18.59467	711.79114	-160.09835	120.02867	773.38047	-234.26675	162.57867	828.93806	-305.62354	193.66000	797.75603	-293.05639	-29.42505	795.78577	-770.45178	-46.55061	663.85886	-757.96783	-25.71854	696.97837	-819.82138	86.99865	762.80575	-755.11800	141.28470	823.99734	-689.57788	168.64508	788.84597	-694.08574	-388.31422	610.46679	-375.50386	-400.99653	594.21314	-565.05747	-382.74471	608.62193	-385.38906	-379.29718	598.37789	-533.95805	
673	6.72000000	-59.47958	427.19480	-314.05525	-14.51796	371.50641	-321.99447	-251.06355	95.52681	-357.81846	-316.33645	58.92744	-408.03746	-140.97701	39.70623	-311.27181	-96.65261	58.27375	-364.51234	-95.28687	453.10031	-753.27312	-75.80515	376.10425	-788.49641	-246.98732	103.21197	-790.10160	-309.57205	58.65409	-747.76015	-135.08854	41.62155	-834.06409	-89.76110	59.43152	-781.16839	-68.81836	269.94734	-347.59213	-79.64233	394.92603	-289.33731	-130.64499	289.61827	-292.89462	-152.30381	419.70125	-773.66709	-205.44980	307.23273	-787.59818	-266.23377	631.75007	-376.42819	-162.07771	593.59638	-361.67483	-155.20784	566.45809	-299.40325	-294.76580	589.43631	-276.64412	-194.74594	535.62661	-272.70681	-334.06060	626.72157	-661.57063	-224.80143	557.42055	-726.19919	-397.59898	535.28599	-675.87241	-281.67178	461.00871	-697.71436	-293.00876	667.03437	-357.16416	-456.51213	747.27091	-435.00232	-298.21776	626.74915	-579.10002	-454.37480	740.90170	-527.71364	-87.43170	1043.00597	-494.25290	-18.19939	971.37633	-338.77679	-26.25606	971.21194	-633.22408	-23.23834	906.75429	-468.26728	-28.49254	902.35672	-502.45543	7.72961	791.94223	-209.21794	-18.45601	668.99703	-206.10426	18.04323	710.48708	-159.69495	119.69549	771.95334	-233.76286	162.45723	827.66371	-305.09071	193.47707	796.34960	-292.55871	-29.34771	795.35400	-770.32428	-46.68694	663.35538	-757.93205	-26.00729	696.58939	-819.91482	87.21030	761.97773	-754.99822	141.66989	822.97445	-689.52284	168.96785	787.83054	-694.24290	-387.87959	609.59943	-375.52312	-400.62834	593.52720	-565.08774	-382.33962	607.87852	-385.48148	-378.91559	597.67518	-534.00290	
674	6.73000000	-58.93437	426.90507	-313.86475	-14.08385	371.28146	-321.83218	-250.99165	95.66645	-357.87604	-316.32460	58.95675	-408.03220	-140.98797	39.70008	-311.26460	-96.63174	58.24414	-364.52971	-94.62234	453.18677	-753.54880	-75.39563	375.93044	-788.46439	-246.89256	103.22139	-789.99705	-309.55393	58.67035	-747.71027	-135.07542	41.60160	-834.07955	-89.73868	59.37444	-781.16838	-68.53670	269.72244	-347.48481	-79.21364	394.75533	-289.18563	-130.43549	289.54898	-292.87153	-151.77244	419.56428	-773.45223	-204.97332	307.26314	-786.49637	-265.88880	631.31507	-376.27867	-161.71414	593.17325	-361.70976	-154.75288	566.03851	-299.40809	-294.38158	588.85235	-276.61458	-194.28986	535.20730	-272.69912	-333.57083	626.28333	-661.23301	-224.20933	557.09157	-726.11139	-397.07019	534.81327	-675.97229	-281.31992	460.04426	-697.10445	-292.65532	666.36889	-357.21331	-456.15501	746.63058	-434.95897	-297.73177	625.66339	-579.18316	-454.05465	740.27644	-527.61591	-87.09929	1042.61607	-493.93452	-18.10541	970.67341	-338.30681	-25.89491	970.88476	-632.92366	-22.91665	906.16658	-467.90249	-28.57830	901.39390	-502.01917	7.37638	790.94694	-208.94220	-19.12841	668.02019	-206.10689	17.45307	709.39073	-159.52626	119.24377	770.77060	-233.35582	162.29733	826.54792	-304.50442	193.28090	795.11338	-291.97632	-29.33521	795.09657	-770.24829	-46.87641	663.05679	-757.84663	-26.21433	696.39508	-819.90782	87.32225	761.38310	-755.03881	142.00465	822.09387	-689.66608	169.13135	786.96137	-694.32140	-387.53009	608.94963	-375.43505	-400.36598	592.70805	-564.97869	-381.94999	607.00000	-385.48527	-378.58160	596.80978	-534.07997	
675	6.74000000	-58.44833	426.72081	-313.52888	-13.71653	370.96201	-321.65125	-250.98790	95.76162	-357.91804	-316.32206	58.98480	-408.01332	-140.98918	39.70081	-311.26507	-96.62824	58.21131	-364.53653	-94.06189	453.22850	-753.92538	-75.05633	375.83159	-788.48853	-246.82113	103.24364	-789.91959	-309.52602	58.73270	-747.68517	-135.06826	41.57901	-834.11414	-89.71901	59.31130	-781.17258	-68.23166	269.54678	-347.31267	-78.79434	394.55354	-289.00741	-130.24010	289.52223	-292.74358	-151.25560	419.61789	-773.48768	-204.63024	307.47152	-785.97255	-265.59227	630.91104	-376.16970	-161.31463	592.88536	-361.64414	-154.38345	565.76620	-299.35344	-294.02146	588.35889	-276.72341	-193.89582	534.77368	-272.65807	-333.10400	626.03088	-661.02493	-223.52620	557.03979	-726.30571	-396.50210	534.62694	-676.26149	-280.86823	459.57295	-697.03089	-292.25701	665.91760	-357.10917	-455.76806	746.08482	-434.97476	-297.21774	624.78712	-578.85549	-453.68734	739.79645	-527.54185	-86.85207	1042.35959	-493.63843	-18.01491	970.08227	-338.04629	-25.60327	970.65290	-632.60174	-22.65618	905.79501	-467.51304	-28.29838	900.80266	-501.52096	6.89565	790.19708	-208.66741	-19.87421	667.33379	-205.95681	16.80087	708.48673	-159.56076	118.77101	769.75656	-233.02413	162.08358	825.57389	-303.84525	192.99507	794.04417	-291.29215	-29.35228	795.02968	-770.20610	-47.14633	663.02542	-757.88090	-26.42309	696.35762	-819.87726	87.34503	760.91571	-755.08988	142.31824	821.38101	-689.95802	169.19984	786.14725	-694.38500	-387.19026	608.52198	-375.18359	-399.97315	591.99310	-564.70577	-381.46333	606.28338	-385.32567	-378.12513	596.19440	-533.83179	
676	6.75000000	-57.96030	426.55594	-313.23443	-13.34033	370.58079	-321.45884	-251.01072	95.76963	-357.94273	-316.31701	59.00200	-408.00608	-140.97931	39.70744	-311.27210	-96.62559	58.17281	-364.53225	-93.57093	453.09114	-754.08995	-74.68841	375.72956	-788.47882	-246.75846	103.28630	-789.88761	-309.49782	58.83492	-747.67867	-135.06027	41.56168	-834.14354	-89.69538	59.26099	-781.18815	-67.95819	269.39452	-347.04318	-78.45968	394.21290	-289.00085	-130.06107	289.39844	-292.66106	-150.76590	419.81796	-773.79024	-204.38045	307.88940	-786.61934	-265.23288	630.51035	-376.20303	-160.87018	592.63732	-361.49170	-154.00233	565.56130	-299.19244	-293.61858	587.97134	-276.80807	-193.50911	534.39924	-272.66248	-332.53690	625.85103	-660.81847	-222.82235	557.11751	-726.49583	-395.91164	534.56365	-676.52273	-280.12336	459.91471	-697.75628	-291.84018	665.53906	-356.99261	-455.36226	745.63118	-434.97196	-296.69052	624.86866	-578.18248	-453.24620	739.43485	-527.50018	-86.61100	1042.25258	-493.39715	-17.87690	969.80830	-337.69622	-25.31989	970.52122	-632.19197	-22.42664	905.67914	-467.15332	-27.75718	900.57648	-501.09505	6.34168	789.64097	-208.38864	-20.70984	666.89380	-205.69247	16.00229	707.78809	-159.38773	118.31934	768.94281	-232.54620	161.78062	824.73414	-303.14130	192.57018	793.19271	-290.51496	-29.39595	795.07946	-770.11350	-47.46470	663.24294	-758.15144	-26.72240	696.54386	-820.05215	87.35850	760.58628	-755.15329	142.60950	820.89551	-690.19785	169.26712	785.43939	-694.47573	-386.77864	608.15013	-375.06015	-399.27004	591.75474	-564.61357	-380.88268	606.13623	-385.21428	-377.49580	596.21814	-533.31174	
677	6.76000000	-57.48817	426.30178	-313.06618	-12.92840	370.23390	-321.23429	-250.96941	95.74359	-357.95905	-316.27612	59.05248	-408.03170	-140.97098	39.71057	-311.27384	-96.61921	58.14170	-364.52807	-93.04459	452.84674	-754.04564	-74.25744	375.62327	-788.48169	-246.67736	103.36648	-789.93053	-309.47590	58.90688	-747.65479	-135.05785	41.54511	-834.15138	-89.65559	59.21439	-781.21234	-67.74739	269.21326	-346.70371	-78.17776	393.82071	-289.06075	-129.90525	289.25952	-292.60033	-150.33343	419.95903	-774.04796	-204.06626	308.30359	-787.59248	-264.76410	630.11272	-376.26515	-160.45233	592.36592	-361.30178	-153.57045	565.32378	-298.95505	-293.22179	587.67230	-276.75986	-193.16086	534.07341	-272.78705	-331.87258	625.75430	-660.61783	-222.20759	557.14091	-726.42774	-395.32945	534.52331	-676.67742	-279.26476	460.56217	-698.68878	-291.46911	665.16316	-357.03758	-454.98300	745.28498	-434.94043	-296.13440	625.38761	-577.87037	-452.77616	739.15091	-527.57218	-86.15830	1042.33020	-492.94397	-17.76578	969.75129	-337.24732	-25.05406	970.52724	-631.82143	-22.16701	905.76293	-466.79157	-27.34618	900.58306	-500.82392	5.78303	789.23363	-208.05114	-21.60875	666.54439	-205.44835	15.07352	707.37944	-158.83164	117.77366	768.39830	-231.80799	161.39231	823.98880	-302.47150	192.10158	792.57114	-289.66957	-29.46487	795.22920	-770.01100	-47.76214	663.55913	-758.42786	-27.01251	696.89443	-820.37180	87.37384	760.46712	-755.31603	142.82174	820.63802	-690.30703	169.33280	784.95353	-694.54662	-386.31656	607.74029	-375.25007	-398.49327	591.82434	-564.86547	-380.37394	606.22626	-385.36593	-376.85375	596.44164	-533.12740	
